<?xml version="1.0" standalone="no"?><!-- Generator: Gravit.io --><svg xmlns="http://www.w3.org/2000/svg" xmlns:xlink="http://www.w3.org/1999/xlink" style="isolation:isolate" viewBox="0 0 375 473.325" width="375" height="473.325"><g><path d=" M 255.069 3.658 C 252.899 1.372 249.923 0 246.839 0 L 62.195 0 C 28.124 0 0 28.012 0 62.08 L 0 411.242 C 0 445.313 28.124 473.325 62.195 473.325 L 312.805 473.325 C 346.876 473.325 375 445.313 375 411.242 L 375 133.993 C 375 131.021 373.628 128.165 371.685 125.991 L 255.069 3.658 Z  M 258.384 40.359 L 336.472 122.333 L 285.71 122.333 C 270.619 122.333 258.384 110.213 258.384 95.122 L 258.384 40.359 Z  M 312.805 450.459 L 62.195 450.459 C 40.817 450.459 22.866 432.739 22.866 411.242 L 22.866 62.08 C 22.866 40.702 40.702 22.866 62.195 22.866 L 235.518 22.866 L 235.518 95.122 C 235.518 122.903 257.929 145.199 285.71 145.199 L 352.134 145.199 L 352.134 411.242 C 352.134 432.739 334.298 450.459 312.805 450.459 Z " fill="rgb(255,255,255)"/><path d=" M 281.593 371.573 L 93.407 371.573 C 87.12 371.573 81.974 376.715 81.974 383.006 C 81.974 389.293 87.12 394.439 93.407 394.439 L 281.709 394.439 C 287.996 394.439 293.142 389.293 293.142 383.006 C 293.142 376.715 287.996 371.573 281.593 371.573 Z " fill="rgb(255,255,255)"/><path d=" M 128.963 248.554 L 176.067 197.904 L 176.067 322.753 C 176.067 329.04 181.213 334.186 187.5 334.186 C 193.791 334.186 198.933 329.04 198.933 322.753 L 198.933 197.904 L 246.037 248.554 C 248.323 250.952 251.299 252.212 254.383 252.212 C 257.127 252.212 259.987 251.183 262.158 249.125 C 266.733 244.781 267.076 237.576 262.732 233.005 L 195.734 161.091 C 193.56 158.806 190.588 157.433 187.388 157.433 C 184.185 157.433 181.213 158.806 179.043 161.091 L 112.044 233.005 C 107.7 237.576 108.043 244.893 112.615 249.125 C 117.418 253.469 124.618 253.126 128.963 248.554 Z " fill="rgb(255,255,255)"/></g></svg>